<mxfile host="app.diagrams.net" agent="Mozilla/5.0 (Macintosh; Intel Mac OS X 10_15_7) AppleWebKit/537.36 (KHTML, like Gecko) Chrome/131.0.0.0 Safari/537.36" version="25.0.1">
  <diagram name="Page-1" id="ZzB7i4NtdFD34NnYMOvR">
    <mxGraphModel dx="707" dy="720" grid="1" gridSize="10" guides="1" tooltips="1" connect="1" arrows="1" fold="1" page="1" pageScale="1" pageWidth="850" pageHeight="1100" math="0" shadow="0">
      <root>
        <mxCell id="0" />
        <mxCell id="1" parent="0" />
        <mxCell id="f07_9i_d-xM3dZHE4S6k-22" value="AWS Cloud" style="points=[[0,0],[0.25,0],[0.5,0],[0.75,0],[1,0],[1,0.25],[1,0.5],[1,0.75],[1,1],[0.75,1],[0.5,1],[0.25,1],[0,1],[0,0.75],[0,0.5],[0,0.25]];outlineConnect=0;gradientColor=none;html=1;whiteSpace=wrap;fontSize=12;fontStyle=0;container=1;pointerEvents=0;collapsible=0;recursiveResize=0;shape=mxgraph.aws4.group;grIcon=mxgraph.aws4.group_aws_cloud_alt;strokeColor=#232F3E;fillColor=none;verticalAlign=top;align=left;spacingLeft=30;fontColor=#232F3E;dashed=0;" parent="1" vertex="1">
          <mxGeometry x="200" y="80" width="960" height="840" as="geometry" />
        </mxCell>
        <mxCell id="yX0CiLTxAoeklkkQZ7V3-3" value="" style="fillColor=none;strokeColor=#5A6C86;dashed=1;verticalAlign=top;fontStyle=0;fontColor=#5A6C86;whiteSpace=wrap;html=1;rounded=0;perimeterSpacing=0;shadow=0;glass=0;" vertex="1" parent="f07_9i_d-xM3dZHE4S6k-22">
          <mxGeometry x="39.75" y="40" width="880.25" height="640" as="geometry" />
        </mxCell>
        <mxCell id="f07_9i_d-xM3dZHE4S6k-15" value="Cloud&amp;nbsp;&lt;span style=&quot;background-color: initial;&quot;&gt;Development&amp;nbsp;&lt;/span&gt;&lt;span style=&quot;background-color: initial;&quot;&gt;Kit&lt;/span&gt;" style="sketch=0;points=[[0,0,0],[0.25,0,0],[0.5,0,0],[0.75,0,0],[1,0,0],[0,1,0],[0.25,1,0],[0.5,1,0],[0.75,1,0],[1,1,0],[0,0.25,0],[0,0.5,0],[0,0.75,0],[1,0.25,0],[1,0.5,0],[1,0.75,0]];outlineConnect=0;fontColor=#232F3E;fillColor=#C925D1;strokeColor=#ffffff;dashed=0;verticalLabelPosition=bottom;verticalAlign=top;align=left;html=1;fontSize=12;fontStyle=0;aspect=fixed;shape=mxgraph.aws4.resourceIcon;resIcon=mxgraph.aws4.cloud_development_kit;" parent="f07_9i_d-xM3dZHE4S6k-22" vertex="1">
          <mxGeometry x="39" y="40" width="80" height="80" as="geometry" />
        </mxCell>
        <mxCell id="f07_9i_d-xM3dZHE4S6k-23" style="edgeStyle=orthogonalEdgeStyle;rounded=1;orthogonalLoop=1;jettySize=auto;html=1;curved=0;" parent="f07_9i_d-xM3dZHE4S6k-22" source="f07_9i_d-xM3dZHE4S6k-26" target="f07_9i_d-xM3dZHE4S6k-11" edge="1">
          <mxGeometry relative="1" as="geometry">
            <Array as="points">
              <mxPoint x="680" y="340" />
              <mxPoint x="280" y="340" />
              <mxPoint x="280" y="260" />
            </Array>
          </mxGeometry>
        </mxCell>
        <mxCell id="f07_9i_d-xM3dZHE4S6k-11" value="Sample Python App" style="sketch=0;points=[[0,0,0],[0.25,0,0],[0.5,0,0],[0.75,0,0],[1,0,0],[0,1,0],[0.25,1,0],[0.5,1,0],[0.75,1,0],[1,1,0],[0,0.25,0],[0,0.5,0],[0,0.75,0],[1,0.25,0],[1,0.5,0],[1,0.75,0]];outlineConnect=0;fontColor=#232F3E;fillColor=#ED7100;strokeColor=#ffffff;dashed=0;verticalLabelPosition=bottom;verticalAlign=top;align=center;html=1;fontSize=12;fontStyle=0;aspect=fixed;shape=mxgraph.aws4.resourceIcon;resIcon=mxgraph.aws4.ec2;" parent="f07_9i_d-xM3dZHE4S6k-22" vertex="1">
          <mxGeometry x="119" y="200" width="80" height="80" as="geometry" />
        </mxCell>
        <mxCell id="f07_9i_d-xM3dZHE4S6k-16" value="Sign-up" style="sketch=0;points=[[0,0,0],[0.25,0,0],[0.5,0,0],[0.75,0,0],[1,0,0],[0,1,0],[0.25,1,0],[0.5,1,0],[0.75,1,0],[1,1,0],[0,0.25,0],[0,0.5,0],[0,0.75,0],[1,0.25,0],[1,0.5,0],[1,0.75,0]];outlineConnect=0;fontColor=#232F3E;fillColor=#C925D1;strokeColor=#ffffff;dashed=0;verticalLabelPosition=bottom;verticalAlign=top;align=center;html=1;fontSize=12;fontStyle=0;aspect=fixed;shape=mxgraph.aws4.resourceIcon;resIcon=mxgraph.aws4.dynamodb;" parent="f07_9i_d-xM3dZHE4S6k-22" vertex="1">
          <mxGeometry x="360" y="200" width="80" height="80" as="geometry" />
        </mxCell>
        <mxCell id="f07_9i_d-xM3dZHE4S6k-34" style="edgeStyle=orthogonalEdgeStyle;rounded=0;orthogonalLoop=1;jettySize=auto;html=1;" parent="f07_9i_d-xM3dZHE4S6k-22" source="f07_9i_d-xM3dZHE4S6k-11" target="f07_9i_d-xM3dZHE4S6k-16" edge="1">
          <mxGeometry relative="1" as="geometry" />
        </mxCell>
        <mxCell id="f07_9i_d-xM3dZHE4S6k-21" value="" style="fillColor=none;strokeColor=#5A6C86;dashed=1;verticalAlign=top;fontStyle=0;fontColor=#5A6C86;whiteSpace=wrap;html=1;rounded=0;perimeterSpacing=0;shadow=0;glass=0;" parent="f07_9i_d-xM3dZHE4S6k-22" vertex="1">
          <mxGeometry x="78.5" y="400" width="801.5" height="240" as="geometry" />
        </mxCell>
        <mxCell id="f07_9i_d-xM3dZHE4S6k-30" style="edgeStyle=orthogonalEdgeStyle;rounded=0;orthogonalLoop=1;jettySize=auto;html=1;" parent="f07_9i_d-xM3dZHE4S6k-22" source="f07_9i_d-xM3dZHE4S6k-24" target="f07_9i_d-xM3dZHE4S6k-25" edge="1">
          <mxGeometry relative="1" as="geometry" />
        </mxCell>
        <mxCell id="f07_9i_d-xM3dZHE4S6k-24" value="Source" style="fillColor=none;strokeColor=#5A6C86;dashed=1;verticalAlign=top;fontStyle=0;fontColor=#5A6C86;whiteSpace=wrap;html=1;rounded=1;" parent="f07_9i_d-xM3dZHE4S6k-22" vertex="1">
          <mxGeometry x="120.5" y="440" width="160" height="160" as="geometry" />
        </mxCell>
        <mxCell id="yX0CiLTxAoeklkkQZ7V3-5" style="edgeStyle=orthogonalEdgeStyle;rounded=0;orthogonalLoop=1;jettySize=auto;html=1;" edge="1" parent="f07_9i_d-xM3dZHE4S6k-22" source="f07_9i_d-xM3dZHE4S6k-24" target="yX0CiLTxAoeklkkQZ7V3-4">
          <mxGeometry relative="1" as="geometry">
            <mxPoint x="201" y="600" as="sourcePoint" />
          </mxGeometry>
        </mxCell>
        <mxCell id="f07_9i_d-xM3dZHE4S6k-27" value="CodeArtifact" style="sketch=0;points=[[0,0,0],[0.25,0,0],[0.5,0,0],[0.75,0,0],[1,0,0],[0,1,0],[0.25,1,0],[0.5,1,0],[0.75,1,0],[1,1,0],[0,0.25,0],[0,0.5,0],[0,0.75,0],[1,0.25,0],[1,0.5,0],[1,0.75,0]];outlineConnect=0;fontColor=#232F3E;fillColor=#C925D1;strokeColor=#ffffff;dashed=0;verticalLabelPosition=bottom;verticalAlign=top;align=center;html=1;fontSize=12;fontStyle=0;aspect=fixed;shape=mxgraph.aws4.resourceIcon;resIcon=mxgraph.aws4.codeartifact;" parent="f07_9i_d-xM3dZHE4S6k-22" vertex="1">
          <mxGeometry x="160.5" y="480" width="80" height="80" as="geometry" />
        </mxCell>
        <mxCell id="f07_9i_d-xM3dZHE4S6k-26" value="Deploy" style="fillColor=none;strokeColor=#5A6C86;dashed=1;verticalAlign=top;fontStyle=0;fontColor=#5A6C86;whiteSpace=wrap;html=1;rounded=1;" parent="f07_9i_d-xM3dZHE4S6k-22" vertex="1">
          <mxGeometry x="600.5" y="440" width="159" height="160" as="geometry" />
        </mxCell>
        <mxCell id="f07_9i_d-xM3dZHE4S6k-13" value="CodeDeploy" style="sketch=0;points=[[0,0,0],[0.25,0,0],[0.5,0,0],[0.75,0,0],[1,0,0],[0,1,0],[0.25,1,0],[0.5,1,0],[0.75,1,0],[1,1,0],[0,0.25,0],[0,0.5,0],[0,0.75,0],[1,0.25,0],[1,0.5,0],[1,0.75,0]];outlineConnect=0;fontColor=#232F3E;fillColor=#C925D1;strokeColor=#ffffff;dashed=0;verticalLabelPosition=bottom;verticalAlign=top;align=center;html=1;fontSize=12;fontStyle=0;aspect=fixed;shape=mxgraph.aws4.resourceIcon;resIcon=mxgraph.aws4.codedeploy;" parent="f07_9i_d-xM3dZHE4S6k-22" vertex="1">
          <mxGeometry x="641" y="480" width="80" height="80" as="geometry" />
        </mxCell>
        <mxCell id="f07_9i_d-xM3dZHE4S6k-32" style="edgeStyle=orthogonalEdgeStyle;rounded=0;orthogonalLoop=1;jettySize=auto;html=1;" parent="f07_9i_d-xM3dZHE4S6k-22" source="f07_9i_d-xM3dZHE4S6k-25" target="f07_9i_d-xM3dZHE4S6k-26" edge="1">
          <mxGeometry relative="1" as="geometry" />
        </mxCell>
        <mxCell id="f07_9i_d-xM3dZHE4S6k-25" value="Build" style="fillColor=none;strokeColor=#5A6C86;dashed=1;verticalAlign=top;fontStyle=0;fontColor=#5A6C86;whiteSpace=wrap;html=1;rounded=1;" parent="f07_9i_d-xM3dZHE4S6k-22" vertex="1">
          <mxGeometry x="360.5" y="440" width="160" height="160" as="geometry" />
        </mxCell>
        <mxCell id="f07_9i_d-xM3dZHE4S6k-12" value="CodeBuild" style="sketch=0;points=[[0,0,0],[0.25,0,0],[0.5,0,0],[0.75,0,0],[1,0,0],[0,1,0],[0.25,1,0],[0.5,1,0],[0.75,1,0],[1,1,0],[0,0.25,0],[0,0.5,0],[0,0.75,0],[1,0.25,0],[1,0.5,0],[1,0.75,0]];outlineConnect=0;fontColor=#232F3E;fillColor=#C925D1;strokeColor=#ffffff;dashed=0;verticalLabelPosition=bottom;verticalAlign=top;align=center;html=1;fontSize=12;fontStyle=0;aspect=fixed;shape=mxgraph.aws4.resourceIcon;resIcon=mxgraph.aws4.codebuild;" parent="f07_9i_d-xM3dZHE4S6k-22" vertex="1">
          <mxGeometry x="400.5" y="480" width="80" height="80" as="geometry" />
        </mxCell>
        <mxCell id="f07_9i_d-xM3dZHE4S6k-14" value="CodePipeline" style="sketch=0;points=[[0,0,0],[0.25,0,0],[0.5,0,0],[0.75,0,0],[1,0,0],[0,1,0],[0.25,1,0],[0.5,1,0],[0.75,1,0],[1,1,0],[0,0.25,0],[0,0.5,0],[0,0.75,0],[1,0.25,0],[1,0.5,0],[1,0.75,0]];outlineConnect=0;fontColor=#232F3E;fillColor=#C925D1;strokeColor=#ffffff;dashed=0;verticalLabelPosition=bottom;verticalAlign=top;align=center;html=1;fontSize=12;fontStyle=0;aspect=fixed;shape=mxgraph.aws4.resourceIcon;resIcon=mxgraph.aws4.codepipeline;" parent="f07_9i_d-xM3dZHE4S6k-22" vertex="1">
          <mxGeometry x="800" y="400" width="80" height="80" as="geometry" />
        </mxCell>
        <mxCell id="f07_9i_d-xM3dZHE4S6k-29" style="edgeStyle=orthogonalEdgeStyle;rounded=0;orthogonalLoop=1;jettySize=auto;html=1;" parent="f07_9i_d-xM3dZHE4S6k-22" source="yX0CiLTxAoeklkkQZ7V3-1" target="f07_9i_d-xM3dZHE4S6k-24" edge="1">
          <mxGeometry relative="1" as="geometry">
            <mxPoint x="80" y="560" as="targetPoint" />
          </mxGeometry>
        </mxCell>
        <mxCell id="f07_9i_d-xM3dZHE4S6k-10" value="User" style="sketch=0;outlineConnect=0;fontColor=#232F3E;gradientColor=none;fillColor=#232F3D;strokeColor=none;dashed=0;verticalLabelPosition=bottom;verticalAlign=top;align=center;html=1;fontSize=12;fontStyle=0;aspect=fixed;pointerEvents=1;shape=mxgraph.aws4.user;" parent="f07_9i_d-xM3dZHE4S6k-22" vertex="1">
          <mxGeometry x="-160" y="200" width="80" height="80" as="geometry" />
        </mxCell>
        <mxCell id="f07_9i_d-xM3dZHE4S6k-33" style="edgeStyle=orthogonalEdgeStyle;rounded=0;orthogonalLoop=1;jettySize=auto;html=1;" parent="f07_9i_d-xM3dZHE4S6k-22" source="f07_9i_d-xM3dZHE4S6k-10" target="f07_9i_d-xM3dZHE4S6k-11" edge="1">
          <mxGeometry relative="1" as="geometry" />
        </mxCell>
        <mxCell id="yX0CiLTxAoeklkkQZ7V3-1" value="GitHub" style="dashed=0;outlineConnect=0;html=1;align=center;labelPosition=center;verticalLabelPosition=bottom;verticalAlign=top;shape=mxgraph.weblogos.github" vertex="1" parent="f07_9i_d-xM3dZHE4S6k-22">
          <mxGeometry x="-160" y="480" width="80" height="80" as="geometry" />
        </mxCell>
        <mxCell id="yX0CiLTxAoeklkkQZ7V3-4" value="Secrets Manager" style="sketch=0;points=[[0,0,0],[0.25,0,0],[0.5,0,0],[0.75,0,0],[1,0,0],[0,1,0],[0.25,1,0],[0.5,1,0],[0.75,1,0],[1,1,0],[0,0.25,0],[0,0.5,0],[0,0.75,0],[1,0.25,0],[1,0.5,0],[1,0.75,0]];outlineConnect=0;fontColor=#232F3E;fillColor=#DD344C;strokeColor=#ffffff;dashed=0;verticalLabelPosition=bottom;verticalAlign=top;align=center;html=1;fontSize=12;fontStyle=0;aspect=fixed;shape=mxgraph.aws4.resourceIcon;resIcon=mxgraph.aws4.secrets_manager;" vertex="1" parent="f07_9i_d-xM3dZHE4S6k-22">
          <mxGeometry x="160.5" y="720" width="80" height="80" as="geometry" />
        </mxCell>
      </root>
    </mxGraphModel>
  </diagram>
</mxfile>
